<?xml version="1.0" encoding="UTF-8"?>
<!DOCTYPE svg PUBLIC "-//W3C//DTD SVG 1.1//EN" "http://www.w3.org/Graphics/SVG/1.1/DTD/svg11.dtd">
<svg version="1.1" xmlns="http://www.w3.org/2000/svg" xmlns:xlink="http://www.w3.org/1999/xlink" x="0" y="0" width="5472" height="3648" viewBox="0, 0, 5472, 3648">
  <g id="Image">
    <g>
      <path d="M5472.5,0.5 L5472.5,3648.5 L0.5,3648.5 L0.5,0.5 L5472.5,0.5 z M3213.783,1906.759 L3188.866,1906.759 C3188.492,1906.785 3188.119,1906.833 3187.75,1906.904 L3187.75,1986.303 C3185.155,1986.587 3108.379,1986.476 3107.263,1986.174 L3107.263,1960.264 L3080.683,1960.264 L3080.683,2120.223 C3082.509,2120.496 3106.275,2120.407 3107.33,2120.1 L3107.33,2013.876 L3187.772,2013.876 L3187.772,2120.345 L3214.458,2120.345 L3214.447,1906.82 C3214.224,1906.798 3214.006,1906.759 3213.783,1906.759 z M2841.184,1906.664 C2832.512,1906.945 2830.358,1906.716 2821.798,1908.18 C2784.47,1914.561 2753.039,1940.863 2739.682,1976.199 C2720.662,2027.251 2743.109,2084.438 2791.778,2108.92 C2838.184,2132.19 2888.335,2117.041 2914.741,2089.284 L2896.238,2070.775 C2881.536,2084.874 2863.988,2092.817 2843.447,2093.755 C2822.907,2094.692 2804.51,2088.558 2788.574,2075.531 C2760.353,2052.351 2751.265,2013.081 2766.433,1979.86 C2781.601,1946.638 2817.226,1927.784 2853.226,1933.925 C2870.909,1936.922 2885.963,1945.066 2898.32,1958.076 C2906.038,1966.214 2911.947,1975.892 2915.657,1986.476 L2812.592,1986.476 L2839.842,2013.736 L2946.412,2013.736 C2947.388,1972.494 2920.055,1923.727 2865.919,1909.918 C2857.788,1908.068 2849.56,1906.644 2841.184,1906.664 z M2390.074,1852.427 L2380.965,1852.427 C2380.448,1852.535 2379.927,1852.617 2379.402,1852.673 C2378.375,1852.734 2377.342,1852.701 2376.321,1852.779 C2369.328,1853.28 2362.384,1854.321 2355.552,1855.893 C2327.643,1862.474 2303.983,1876.333 2285.128,1897.934 C2261.78,1924.665 2250.779,1955.967 2251.8,1991.46 C2252.036,1999.595 2253.075,2007.687 2254.904,2015.617 C2261.294,2043.475 2274.997,2067.114 2296.308,2086.175 C2318.227,2105.8 2343.981,2116.857 2373.229,2119.754 C2379.584,2120.397 2385.98,2120.533 2392.357,2120.161 C2399.977,2119.763 2407.55,2118.725 2414.996,2117.058 C2443.362,2110.483 2467.346,2096.417 2486.441,2074.437 C2507.835,2049.783 2518.736,2021.009 2519.473,1988.385 C2519.473,1987.776 2519.473,1987.168 2519.473,1986.504 L2386.016,1986.504 L2358.716,2013.803 L2479.185,2013.803 C2482.511,2013.803 2485.838,2013.764 2489.388,2013.803 C2489.081,2014.97 2488.796,2015.902 2488.523,2016.829 C2485.524,2027.021 2481.008,2036.704 2475.127,2045.552 C2464.656,2061.361 2450.198,2074.126 2433.214,2082.558 C2428.068,2085.121 2422.72,2087.255 2417.223,2088.938 C2409.221,2091.44 2400.944,2092.955 2392.574,2093.448 C2387.407,2093.746 2382.226,2093.709 2377.063,2093.336 C2349.036,2091.141 2322.999,2078.004 2304.58,2056.765 C2298.374,2049.624 2293.137,2041.695 2289.007,2033.183 C2285.944,2026.844 2283.502,2020.223 2281.718,2013.413 C2279.862,2006.395 2278.749,1999.202 2278.396,1991.951 C2278.237,1987.761 2278.292,1983.566 2278.564,1979.381 C2278.772,1975.872 2279.156,1972.376 2279.714,1968.905 C2281.017,1960.719 2283.303,1952.72 2286.523,1945.082 C2289.045,1939.034 2292.115,1933.229 2295.694,1927.74 C2299.424,1921.974 2303.725,1916.598 2308.532,1911.693 C2310.943,1909.254 2313.488,1906.938 2316.067,1904.677 C2322.746,1898.888 2330.154,1894 2338.103,1890.137 C2343.897,1887.276 2349.939,1884.948 2356.154,1883.182 C2363.426,1881.053 2370.916,1879.757 2378.481,1879.32 C2385.472,1878.879 2392.489,1879.094 2399.44,1879.961 C2406.073,1880.84 2412.612,1882.322 2418.976,1884.388 C2433.68,1889.214 2447.17,1897.16 2458.521,1907.68 C2459.487,1908.584 2460.464,1909.472 2461.24,1910.192 L2480.027,1891.404 C2479.575,1890.985 2478.972,1890.427 2478.414,1889.869 C2454.017,1866.912 2425.138,1854.347 2391.648,1852.673 C2391.119,1852.619 2390.594,1852.537 2390.074,1852.427 z M2625.948,1906.781 L2600.764,1906.781 C2600.586,1906.794 2600.411,1906.824 2600.239,1906.87 C2600.197,1906.881 2600.159,1906.902 2600.127,1906.932 C2600.09,1906.973 2600.056,1907.018 2600.027,1907.066 L2600.027,2120.284 L2626.601,2120.284 L2749.397,1907.568 C2749.481,1907.412 2749.554,1907.25 2749.615,1907.083 C2749.654,1907.049 2749.615,1906.993 2749.615,1906.954 C2749.592,1906.911 2749.566,1906.87 2749.536,1906.831 L2719.038,1906.831 L2626.992,2066.26 L2626.618,2066.187 L2626.618,1906.887 C2626.397,1906.837 2626.173,1906.802 2625.948,1906.781 z M2572.861,1960.248 L2546.443,1960.248 L2546.443,2120.279 L2572.99,2120.279 C2573.017,2119.972 2573.056,2119.754 2573.062,2119.542 Q2573.04,2039.981 2573.006,1960.415 C2573.006,1960.382 2572.956,1960.348 2572.928,1960.315 L2572.861,1960.248 z M3107.19,1906.82 L2926.658,1906.82 L2941.79,1932.758 L2962.816,1932.758 C2964.602,1932.758 2966.455,1932.747 2968.174,1932.758 C2969.894,1932.769 2971.618,1932.702 2973.438,1932.803 L2973.438,2120.279 L3000.157,2120.279 L3000.157,1932.741 L3107.19,1932.741 L3107.19,1906.82 z M2559.733,1906.759 C2556.181,1906.73 2552.766,1908.128 2550.253,1910.639 C2547.74,1913.15 2546.34,1916.564 2546.365,1920.116 C2546.387,1927.459 2552.349,1933.4 2559.692,1933.394 C2567.036,1933.389 2572.989,1927.441 2573,1920.097 C2573.012,1912.754 2567.077,1906.787 2559.733,1906.759 z M2983.806,1339.37 L2746.755,1339.559 C2743.149,1339.685 2739.706,1341.092 2737.044,1343.529 Q2568.228,1511.957 2399.726,1680.726 C2398.918,1681.575 2398.898,1684.75 2399.726,1685.545 C2489.792,1771.761 2597.201,1818.13 2721.786,1822.414 C2829.522,1826.143 2928.436,1796.823 3016.075,1733.999 C3133.396,1649.922 3200.23,1535.102 3217.874,1391.81 C3219.538,1378.316 3219.872,1364.635 3220.821,1351.041 L3220.854,1339.392 L2983.806,1339.37 z M2748.934,855.467 L2725.167,855.467 L2720.609,855.955 C2698.293,858.275 2675.737,859.257 2653.682,863.127 C2435.549,901.443 2271.619,1081.874 2254.984,1302.112 C2247.004,1408.057 2271.666,1506.209 2327.532,1596.515 C2329.551,1599.777 2331.696,1602.972 2333.828,1606.273 C2334.343,1605.859 2334.617,1605.678 2334.837,1605.458 Q2368.802,1571.653 2402.533,1537.675 C2403.128,1537.12 2403.102,1535.202 2402.607,1534.333 C2350.804,1442.884 2336.809,1345.995 2361.965,1244.006 C2402.607,1079.401 2550.37,959.361 2719.867,952.53 Q2833.505,947.986 2932.079,1004.694 C2933.358,1005.236 2934.822,1005.108 2935.988,1004.353 C2945.078,995.505 2954,986.482 2962.983,977.52 L3004.246,936.343 C3003.843,935.964 3003.419,935.607 3002.976,935.274 Q2905.064,871.1 2788.773,858.495 C2775.533,857.065 2762.22,856.477 2748.934,855.467 z M3083.206,1060.61 C3080.688,1060.66 3078.165,1060.599 3075.651,1060.759 C3070.265,1061.103 3068.781,1061.449 3064.228,1062.246 C3023.542,1070.289 2994.194,1105.938 2994.114,1147.411 C2994.092,1170.567 3003.282,1192.781 3019.658,1209.153 C3049.016,1238.447 3094.972,1242.94 3129.448,1219.887 C3163.924,1196.834 3177.33,1152.648 3161.475,1114.324 C3147.572,1082.711 3117.916,1061.845 3083.206,1060.61 z" fill="#FFFFFF"/>
      <path d="M5472.5,0.5 L5472.5,3648.5 L0.5,3648.5 L0.5,0.5 L5472.5,0.5 z M3213.783,1906.759 L3188.866,1906.759 C3188.492,1906.785 3188.119,1906.833 3187.75,1906.904 L3187.75,1986.303 C3185.155,1986.587 3108.379,1986.476 3107.263,1986.174 L3107.263,1960.264 L3080.683,1960.264 L3080.683,2120.223 C3082.509,2120.496 3106.275,2120.407 3107.33,2120.1 L3107.33,2013.876 L3187.772,2013.876 L3187.772,2120.345 L3214.458,2120.345 L3214.447,1906.82 C3214.224,1906.798 3214.006,1906.759 3213.783,1906.759 z M2841.184,1906.664 C2832.512,1906.945 2830.358,1906.716 2821.798,1908.18 C2784.47,1914.561 2753.039,1940.863 2739.682,1976.199 C2720.662,2027.251 2743.109,2084.438 2791.778,2108.92 C2838.184,2132.19 2888.335,2117.041 2914.741,2089.284 L2896.238,2070.775 C2881.536,2084.874 2863.988,2092.817 2843.447,2093.755 C2822.907,2094.692 2804.51,2088.558 2788.574,2075.531 C2760.353,2052.351 2751.265,2013.081 2766.433,1979.86 C2781.601,1946.638 2817.226,1927.784 2853.226,1933.925 C2870.909,1936.922 2885.963,1945.066 2898.32,1958.076 C2906.038,1966.214 2911.947,1975.892 2915.657,1986.476 L2812.592,1986.476 L2839.842,2013.736 L2946.412,2013.736 C2947.388,1972.494 2920.055,1923.727 2865.919,1909.918 C2857.788,1908.068 2849.56,1906.644 2841.184,1906.664 z M2390.074,1852.427 L2380.965,1852.427 C2380.448,1852.535 2379.927,1852.617 2379.402,1852.673 C2378.375,1852.734 2377.342,1852.701 2376.321,1852.779 C2369.328,1853.28 2362.384,1854.321 2355.552,1855.893 C2327.643,1862.474 2303.983,1876.333 2285.128,1897.934 C2261.78,1924.665 2250.779,1955.967 2251.8,1991.46 C2252.036,1999.595 2253.075,2007.687 2254.904,2015.617 C2261.294,2043.475 2274.997,2067.114 2296.308,2086.175 C2318.227,2105.8 2343.981,2116.857 2373.229,2119.754 C2379.584,2120.397 2385.98,2120.533 2392.357,2120.161 C2399.977,2119.763 2407.55,2118.725 2414.996,2117.058 C2443.362,2110.483 2467.346,2096.417 2486.441,2074.437 C2507.835,2049.783 2518.736,2021.009 2519.473,1988.385 C2519.473,1987.776 2519.473,1987.168 2519.473,1986.504 L2386.016,1986.504 L2358.716,2013.803 L2479.185,2013.803 C2482.511,2013.803 2485.838,2013.764 2489.388,2013.803 C2489.081,2014.97 2488.796,2015.902 2488.523,2016.829 C2485.524,2027.021 2481.008,2036.704 2475.127,2045.552 C2464.656,2061.361 2450.198,2074.126 2433.214,2082.558 C2428.068,2085.121 2422.72,2087.255 2417.223,2088.938 C2409.221,2091.44 2400.944,2092.955 2392.574,2093.448 C2387.407,2093.746 2382.226,2093.709 2377.063,2093.336 C2349.036,2091.141 2322.999,2078.004 2304.58,2056.765 C2298.374,2049.624 2293.137,2041.695 2289.007,2033.183 C2285.944,2026.844 2283.502,2020.223 2281.718,2013.413 C2279.862,2006.395 2278.749,1999.202 2278.396,1991.951 C2278.237,1987.761 2278.292,1983.566 2278.564,1979.381 C2278.772,1975.872 2279.156,1972.376 2279.714,1968.905 C2281.017,1960.719 2283.303,1952.72 2286.523,1945.082 C2289.045,1939.034 2292.115,1933.229 2295.694,1927.74 C2299.424,1921.974 2303.725,1916.598 2308.532,1911.693 C2310.943,1909.254 2313.488,1906.938 2316.067,1904.677 C2322.746,1898.888 2330.154,1894 2338.103,1890.137 C2343.897,1887.276 2349.939,1884.948 2356.154,1883.182 C2363.426,1881.053 2370.916,1879.757 2378.481,1879.32 C2385.472,1878.879 2392.489,1879.094 2399.44,1879.961 C2406.073,1880.84 2412.612,1882.322 2418.976,1884.388 C2433.68,1889.214 2447.17,1897.16 2458.521,1907.68 C2459.487,1908.584 2460.464,1909.472 2461.24,1910.192 L2480.027,1891.404 C2479.575,1890.985 2478.972,1890.427 2478.414,1889.869 C2454.017,1866.912 2425.138,1854.347 2391.648,1852.673 C2391.119,1852.619 2390.594,1852.537 2390.074,1852.427 z M2625.948,1906.781 L2600.764,1906.781 C2600.586,1906.794 2600.411,1906.824 2600.239,1906.87 C2600.197,1906.881 2600.159,1906.902 2600.127,1906.932 C2600.09,1906.973 2600.056,1907.018 2600.027,1907.066 L2600.027,2120.284 L2626.601,2120.284 L2749.397,1907.568 C2749.481,1907.412 2749.554,1907.25 2749.615,1907.083 C2749.654,1907.049 2749.615,1906.993 2749.615,1906.954 C2749.592,1906.911 2749.566,1906.87 2749.536,1906.831 L2719.038,1906.831 L2626.992,2066.26 L2626.618,2066.187 L2626.618,1906.887 C2626.397,1906.837 2626.173,1906.802 2625.948,1906.781 z M2572.861,1960.248 L2546.443,1960.248 L2546.443,2120.279 L2572.99,2120.279 C2573.017,2119.972 2573.056,2119.754 2573.062,2119.542 Q2573.04,2039.981 2573.006,1960.415 C2573.006,1960.382 2572.956,1960.348 2572.928,1960.315 L2572.861,1960.248 z M3107.19,1906.82 L2926.658,1906.82 L2941.79,1932.758 L2962.816,1932.758 C2964.602,1932.758 2966.455,1932.747 2968.174,1932.758 C2969.894,1932.769 2971.618,1932.702 2973.438,1932.803 L2973.438,2120.279 L3000.157,2120.279 L3000.157,1932.741 L3107.19,1932.741 L3107.19,1906.82 z M2559.733,1906.759 C2556.181,1906.73 2552.766,1908.128 2550.253,1910.639 C2547.74,1913.15 2546.34,1916.564 2546.365,1920.116 C2546.387,1927.459 2552.349,1933.4 2559.692,1933.394 C2567.036,1933.389 2572.989,1927.441 2573,1920.097 C2573.012,1912.754 2567.077,1906.787 2559.733,1906.759 z M2983.806,1339.37 L2746.755,1339.559 C2743.149,1339.685 2739.706,1341.092 2737.044,1343.529 Q2568.228,1511.957 2399.726,1680.726 C2398.918,1681.575 2398.898,1684.75 2399.726,1685.545 C2489.792,1771.761 2597.201,1818.13 2721.786,1822.414 C2829.522,1826.143 2928.436,1796.823 3016.075,1733.999 C3133.396,1649.922 3200.23,1535.102 3217.874,1391.81 C3219.538,1378.316 3219.872,1364.635 3220.821,1351.041 L3220.854,1339.392 L2983.806,1339.37 z M2748.934,855.467 L2725.167,855.467 L2720.609,855.955 C2698.293,858.275 2675.737,859.257 2653.682,863.127 C2435.549,901.443 2271.619,1081.874 2254.984,1302.112 C2247.004,1408.057 2271.666,1506.209 2327.532,1596.515 C2329.551,1599.777 2331.696,1602.972 2333.828,1606.273 C2334.343,1605.859 2334.617,1605.678 2334.837,1605.458 Q2368.802,1571.653 2402.533,1537.675 C2403.128,1537.12 2403.102,1535.202 2402.607,1534.333 C2350.804,1442.884 2336.809,1345.995 2361.965,1244.006 C2402.607,1079.401 2550.37,959.361 2719.867,952.53 Q2833.505,947.986 2932.079,1004.694 C2933.358,1005.236 2934.822,1005.108 2935.988,1004.353 C2945.078,995.505 2954,986.482 2962.983,977.52 L3004.246,936.343 C3003.843,935.964 3003.419,935.607 3002.976,935.274 Q2905.064,871.1 2788.773,858.495 C2775.533,857.065 2762.22,856.477 2748.934,855.467 z M3083.206,1060.61 C3080.688,1060.66 3078.165,1060.599 3075.651,1060.759 C3070.265,1061.103 3068.781,1061.449 3064.228,1062.246 C3023.542,1070.289 2994.194,1105.938 2994.114,1147.411 C2994.092,1170.567 3003.282,1192.781 3019.658,1209.153 C3049.016,1238.447 3094.972,1242.94 3129.448,1219.887 C3163.924,1196.834 3177.33,1152.648 3161.475,1114.324 C3147.572,1082.711 3117.916,1061.845 3083.206,1060.61 z" fill-opacity="0" stroke="#000000" stroke-width="1"/>
    </g>
  </g>
</svg>
